<svg viewBox="0 0 256 256" width="256" height="256" xmlns="http://www.w3.org/2000/svg" role="img" aria-label="Scree logo"><defs><filter id="bloom" x="-40%" y="-40%" width="180%" height="180%"><feGaussianBlur stdDeviation="6"/></filter><radialGradient id="heat" gradientUnits="userSpaceOnUse" cx="128.0" cy="224.0" r="176.0"><stop offset="0%" stop-color="#FF9220" stop-opacity="0.5"/><stop offset="34%" stop-color="#FF9220" stop-opacity="0.3"/><stop offset="64%" stop-color="#FF3608" stop-opacity="0.1"/><stop offset="85%" stop-color="#FF3608" stop-opacity="0.03"/><stop offset="100%" stop-color="#FF3608" stop-opacity="0.0"/></radialGradient></defs><rect width="256" height="256" rx="52" fill="#15141B"/><rect width="256" height="256" rx="52" fill="url(#heat)"/><g filter="url(#bloom)"><rect x="176" y="144" width="27" height="27" rx="5" fill="#FF9220"/><rect x="176" y="176" width="27" height="27" rx="5" fill="#FF5B1E"/><rect x="48" y="208" width="27" height="27" rx="5" fill="#FF3608"/><rect x="80" y="208" width="27" height="27" rx="5" fill="#FF3608"/><rect x="112" y="208" width="27" height="27" rx="5" fill="#FF5B1E"/><rect x="144" y="208" width="27" height="27" rx="5" fill="#FF5B1E"/><rect x="176" y="208" width="27" height="27" rx="5" fill="#FF5B1E"/></g><rect x="48" y="16" width="27" height="27" rx="5" fill="#DCC084"/><rect x="48" y="16" width="27" height="3" rx="5" fill="#fff" opacity="0.16"/><rect x="80" y="16" width="27" height="27" rx="5" fill="#E4CE9A"/><rect x="80" y="16" width="27" height="3" rx="5" fill="#fff" opacity="0.16"/><rect x="112" y="16" width="27" height="27" rx="5" fill="#DCC084"/><rect x="112" y="16" width="27" height="3" rx="5" fill="#fff" opacity="0.16"/><rect x="144" y="16" width="27" height="27" rx="5" fill="#CBB27A"/><rect x="144" y="16" width="27" height="3" rx="5" fill="#fff" opacity="0.16"/><rect x="176" y="16" width="27" height="27" rx="5" fill="#E4CE9A"/><rect x="176" y="16" width="27" height="3" rx="5" fill="#fff" opacity="0.16"/><rect x="48" y="48" width="27" height="27" rx="5" fill="#E4CE9A"/><rect x="48" y="48" width="27" height="3" rx="5" fill="#fff" opacity="0.16"/><rect x="48" y="80" width="27" height="27" rx="5" fill="#379AD0"/><rect x="48" y="80" width="27" height="3" rx="5" fill="#fff" opacity="0.16"/><rect x="48" y="112" width="27" height="27" rx="5" fill="#3A9BDC"/><rect x="48" y="112" width="27" height="3" rx="5" fill="#fff" opacity="0.16"/><rect x="80" y="112" width="27" height="27" rx="5" fill="#2E86C8"/><rect x="80" y="112" width="27" height="3" rx="5" fill="#fff" opacity="0.16"/><rect x="112" y="112" width="27" height="27" rx="5" fill="#A2FF60"/><rect x="112" y="112" width="27" height="3" rx="5" fill="#fff" opacity="0.16"/><rect x="144" y="112" width="27" height="27" rx="5" fill="#379AD0"/><rect x="144" y="112" width="27" height="3" rx="5" fill="#fff" opacity="0.16"/><rect x="176" y="112" width="27" height="27" rx="5" fill="#3A9BDC"/><rect x="176" y="112" width="27" height="3" rx="5" fill="#fff" opacity="0.16"/><rect x="176" y="144" width="27" height="27" rx="5" fill="#FF9220"/><rect x="176" y="144" width="27" height="3" rx="5" fill="#fff" opacity="0.16"/><rect x="176" y="176" width="27" height="27" rx="5" fill="#FF5B1E"/><rect x="176" y="176" width="27" height="3" rx="5" fill="#fff" opacity="0.16"/><rect x="48" y="208" width="27" height="27" rx="5" fill="#FF3608"/><rect x="48" y="208" width="27" height="3" rx="5" fill="#fff" opacity="0.16"/><rect x="80" y="208" width="27" height="27" rx="5" fill="#FF3608"/><rect x="80" y="208" width="27" height="3" rx="5" fill="#fff" opacity="0.16"/><rect x="112" y="208" width="27" height="27" rx="5" fill="#FF5B1E"/><rect x="112" y="208" width="27" height="3" rx="5" fill="#fff" opacity="0.16"/><rect x="144" y="208" width="27" height="27" rx="5" fill="#FF5B1E"/><rect x="144" y="208" width="27" height="3" rx="5" fill="#fff" opacity="0.16"/><rect x="176" y="208" width="27" height="27" rx="5" fill="#FF5B1E"/><rect x="176" y="208" width="27" height="3" rx="5" fill="#fff" opacity="0.16"/></svg>